<svg width="32" height="32" viewBox="0 0 32 32" fill="none" xmlns="http://www.w3.org/2000/svg">
<path d="M21.7482 10.0993C21.7482 8.21642 21.0002 6.4107 19.6688 5.07933C18.3375 3.74796 16.5317 3 14.6489 3C12.7661 3 10.9603 3.74796 9.62896 5.07933C8.29759 6.4107 7.54963 8.21642 7.54963 10.0993C7.54963 18.3817 4 20.7482 4 20.7482H25.2978C25.2978 20.7482 21.7482 18.3817 21.7482 10.0993Z" fill="white" stroke="white" stroke-width="1.5" stroke-linecap="round" stroke-linejoin="round"/>
<path d="M16.6955 25.481C16.4874 25.8396 16.1889 26.1372 15.8296 26.3441C15.4704 26.5511 15.0631 26.66 14.6485 26.66C14.2339 26.66 13.8266 26.5511 13.4674 26.3441C13.1082 26.1372 12.8096 25.8396 12.6016 25.481" stroke="white" stroke-width="1.5" stroke-linecap="round" stroke-linejoin="round"/>
</svg>
