<svg width="263" height="185" viewBox="0 0 263 185" fill="none" xmlns="http://www.w3.org/2000/svg">
<rect x="215" y="115" width="48" height="30" rx="15" fill="#C4C4C4" fill-opacity="0.3"/>
<path fill-rule="evenodd" clip-rule="evenodd" d="M212.389 113C213.955 106.27 214.783 99.2568 214.783 92.05H233.002C240.945 92.05 247.385 85.6106 247.385 77.6672C247.385 69.7238 240.945 63.2844 233.002 63.2844H210.199C198.12 26.5342 163.525 0 122.733 0C93.664 0 67.742 13.4747 50.8724 34.5187H31.6422C23.6988 34.5187 17.2594 40.9582 17.2594 48.9016C17.2594 56.845 23.6988 63.2844 31.6422 63.2844H35.2671C33.6426 68.2267 32.4254 73.3538 31.655 78.626H54.6546C62.598 78.626 69.0374 85.0654 69.0374 93.0088C69.0374 100.952 62.598 107.392 54.6546 107.392H31.9559H14.3828C6.4394 107.392 0 113.831 0 121.774C0 129.718 6.43941 136.157 14.3828 136.157H41.919C57.544 164.725 87.876 184.1 122.733 184.1C155.158 184.1 183.667 167.335 200.065 142H192.5C184.492 142 178 135.508 178 127.5C178 119.492 184.492 113 192.5 113H212.389Z" fill="#C4C4C4" fill-opacity="0.3"/>
<path fill-rule="evenodd" clip-rule="evenodd" d="M143.951 48.5653H98.4513C95.703 48.5653 93.5654 50.7029 93.5654 53.4512V131.472C93.5654 134.22 95.703 136.358 98.4513 136.358H143.951C146.699 136.358 148.837 134.22 148.837 131.472V53.4512C148.837 50.7029 146.699 48.5653 143.951 48.5653ZM145.63 131.472C145.63 132.388 144.867 133.152 143.951 133.152H98.4513C97.5352 133.152 96.7718 132.388 96.7718 131.472V111.929H108.376H120.896H124.407H137.385H145.63V131.472ZM145.63 79.4072H142.271V82.6136H145.63V108.722C131.736 108.722 136.164 108.722 96.7718 108.722V82.6136H139.065V79.4072H96.7718V53.4512C96.7718 52.5351 97.5352 51.7717 98.4513 51.7717H143.951C144.867 51.7717 145.63 52.5351 145.63 53.4512V79.4072Z" fill="#D1D1D1"/>
<path fill-rule="evenodd" clip-rule="evenodd" d="M109.75 124.907H132.5V115.135H109.75V124.907ZM112.956 118.494H129.293V121.7H112.956V118.494Z" fill="#D1D1D1"/>
<path d="M112.992 54.978H99.978V58.2314H112.992V54.978Z" fill="#D1D1D1"/>
<path fill-rule="evenodd" clip-rule="evenodd" d="M165.021 70.2463V48.5654C165.021 44.901 162.12 42 158.608 42C155.86 42 153.57 43.6795 152.501 45.9697C150.516 43.5268 147.462 42 143.951 42H98.4512C92.0385 42 87 47.0385 87 53.4512V131.472C87 137.732 92.0385 142.923 98.4512 142.923H143.951C147.462 142.923 150.516 141.244 152.501 138.801C153.57 141.244 155.86 142.923 158.608 142.923C162.12 142.923 165.021 139.87 165.021 136.358V98.3399L171.586 95.1335V73.4526L165.021 70.2463ZM161.814 136.358C161.814 138.19 160.44 139.564 158.608 139.564C156.776 139.564 155.249 138.19 155.249 136.358V128.266H152.043V131.472C152.043 135.9 148.378 139.564 143.951 139.564H98.4512C93.8707 139.564 90.2063 135.9 90.2063 131.472V53.4512C90.2063 48.8707 93.8707 45.2063 98.4512 45.2063H143.951C148.378 45.2063 152.043 48.8707 152.043 53.4512V124.907H155.249V48.5654C155.249 46.7332 156.776 45.2063 158.608 45.2063C160.44 45.2063 161.814 46.7332 161.814 48.5654V136.358ZM168.38 92.996L165.021 94.6755V73.9107L168.38 75.5902V92.996Z" fill="#D1D1D1"/>
<path d="M79.1794 38.4074L76.389 39.1547L75.3134 38.5342V37.3699L76.3767 36.7593L79.1794 37.5102C79.2357 37.5253 79.2923 37.5327 79.3484 37.5327C79.6363 37.5327 79.8997 37.3404 79.9775 37.0492C80.0707 36.7012 79.8644 36.3435 79.5164 36.2504L77.98 35.8387L79.3964 35.0255C79.7085 34.8462 79.8166 34.4476 79.6372 34.1353C79.4573 33.823 79.0595 33.7148 78.7472 33.8945L77.3279 34.7096L77.7394 33.1727C77.8326 32.8247 77.6265 32.467 77.2784 32.3739C76.9325 32.2832 76.5734 32.4872 76.4802 32.8349L75.7323 35.6254L74.6624 36.2399L73.6481 35.6535V34.4229L75.6992 32.3718C75.9538 32.1171 75.9538 31.7044 75.6992 31.4496C75.4445 31.1949 75.032 31.1949 74.7771 31.4496L73.6481 32.5786V30.9397C73.6481 30.5796 73.356 30.2876 72.9959 30.2876C72.6359 30.2876 72.3439 30.5795 72.3439 30.9397V32.5705L71.2231 31.4496C70.9683 31.1949 70.5557 31.1949 70.3009 31.4496C70.0462 31.7044 70.0462 32.117 70.3009 32.3718L72.3439 34.4147V35.6582L71.3373 36.2389L70.2673 35.625L69.52 32.8349C69.4269 32.4872 69.0695 32.2826 68.7218 32.3739C68.3738 32.467 68.1673 32.8248 68.2606 33.1727L68.6721 34.7094L67.2529 33.8945C66.94 33.7148 66.5417 33.8227 66.3627 34.1355C66.1835 34.4479 66.2915 34.8462 66.6038 35.0255L68.0201 35.8387L66.4836 36.2504C66.1356 36.3435 65.9292 36.7012 66.0224 37.0492C66.1004 37.3404 66.3637 37.5327 66.6517 37.5327C66.7077 37.5327 66.7644 37.5253 66.8209 37.5102L69.6238 36.759L70.686 37.3688L70.6871 38.5342L69.6111 39.1558L66.8209 38.4074C66.4753 38.3167 66.1157 38.521 66.0224 38.8685C65.9292 39.2164 66.1356 39.5742 66.4836 39.6668L68.0145 40.0774L66.6022 40.8927C66.2904 41.0729 66.1835 41.4713 66.3638 41.7831C66.4846 41.993 66.7037 42.1092 66.9288 42.1092C67.0393 42.1092 67.1515 42.0817 67.2543 42.0215L68.6737 41.2024L68.2606 42.745C68.1673 43.0935 68.3738 43.4501 68.7218 43.5438C68.7781 43.5591 68.8347 43.5663 68.8908 43.5663C69.1786 43.5663 69.442 43.3738 69.52 43.0823L70.271 40.2802L71.3392 39.6639L72.3439 40.2437V41.503L70.3009 43.546C70.0462 43.8007 70.0462 44.2133 70.3009 44.4681C70.4283 44.5955 70.5949 44.6586 70.762 44.6586C70.9285 44.6586 71.0957 44.5955 71.2231 44.4681L72.3439 43.3473V44.9776C72.3439 45.3384 72.6359 45.6297 72.9959 45.6297C73.356 45.6297 73.6481 45.3383 73.6481 44.9776V43.3392L74.7771 44.4681C74.9045 44.5955 75.071 44.6586 75.2382 44.6586C75.4053 44.6586 75.5719 44.5955 75.6992 44.4681C75.9539 44.2133 75.9539 43.8008 75.6992 43.546L73.6481 41.4949V40.2487L74.6614 39.6639L75.7293 40.2802L76.4803 43.0823C76.5582 43.3737 76.8216 43.5663 77.1093 43.5663C77.1652 43.5663 77.222 43.559 77.2784 43.5438C77.6266 43.4501 77.8326 43.0934 77.7395 42.745L77.3259 41.2023L78.7459 42.0215C78.8487 42.0815 78.9608 42.1091 79.0714 42.1091C79.2965 42.1091 79.5155 41.9929 79.6364 41.7831C79.8166 41.4713 79.7097 41.0729 79.3979 40.8926L77.9857 40.0775L79.5165 39.6668C79.8645 39.5742 80.0708 39.2164 79.9776 38.8686C79.8849 38.521 79.5268 38.3162 79.1794 38.4074ZM74.0092 38.5342L73 39.1171L71.9915 38.5342L71.9904 37.3678L73 36.7853L74.0092 37.3686V38.5342Z" fill="#2F80ED" fill-opacity="0.5"/>
<path d="M195.179 95.1198L192.389 95.8671L191.313 95.2466V94.0823L192.377 93.4717L195.179 94.2226C195.236 94.2377 195.292 94.2451 195.348 94.2451C195.636 94.2451 195.9 94.0528 195.978 93.7616C196.071 93.4136 195.864 93.0559 195.516 92.9628L193.98 92.5511L195.396 91.7379C195.709 91.5586 195.817 91.16 195.637 90.8477C195.457 90.5354 195.059 90.4272 194.747 90.6069L193.328 91.422L193.739 89.8851C193.833 89.5371 193.627 89.1794 193.278 89.0863C192.933 88.9956 192.573 89.1996 192.48 89.5473L191.732 92.3378L190.662 92.9523L189.648 92.3659V91.1353L191.699 89.0842C191.954 88.8295 191.954 88.4168 191.699 88.162C191.445 87.9073 191.032 87.9073 190.777 88.162L189.648 89.291V87.6521C189.648 87.292 189.356 87 188.996 87C188.636 87 188.344 87.292 188.344 87.6521V89.2829L187.223 88.162C186.968 87.9073 186.556 87.9073 186.301 88.162C186.046 88.4168 186.046 88.8294 186.301 89.0842L188.344 91.1271V92.3706L187.337 92.9513L186.267 92.3374L185.52 89.5473C185.427 89.1996 185.069 88.995 184.722 89.0863C184.374 89.1794 184.167 89.5372 184.261 89.8851L184.672 91.4218L183.253 90.6069C182.94 90.4272 182.542 90.5351 182.363 90.8479C182.183 91.1603 182.292 91.5586 182.604 91.7379L184.02 92.5511L182.484 92.9628C182.136 93.0559 181.929 93.4136 182.022 93.7616C182.1 94.0528 182.364 94.2451 182.652 94.2451C182.708 94.2451 182.764 94.2377 182.821 94.2226L185.624 93.4714L186.686 94.0812L186.687 95.2466L185.611 95.8682L182.821 95.1198C182.475 95.0291 182.116 95.2334 182.022 95.5809C181.929 95.9288 182.136 96.2866 182.484 96.3792L184.014 96.7898L182.602 97.6051C182.29 97.7853 182.183 98.1837 182.364 98.4955C182.485 98.7054 182.704 98.8216 182.929 98.8216C183.039 98.8216 183.151 98.7941 183.254 98.7339L184.674 97.9148L184.261 99.4574C184.167 99.8059 184.374 100.163 184.722 100.256C184.778 100.272 184.835 100.279 184.891 100.279C185.179 100.279 185.442 100.086 185.52 99.7947L186.271 96.9927L187.339 96.3763L188.344 96.9561V98.2154L186.301 100.258C186.046 100.513 186.046 100.926 186.301 101.181C186.428 101.308 186.595 101.371 186.762 101.371C186.929 101.371 187.096 101.308 187.223 101.181L188.344 100.06V101.69C188.344 102.051 188.636 102.342 188.996 102.342C189.356 102.342 189.648 102.051 189.648 101.69V100.052L190.777 101.181C190.904 101.308 191.071 101.371 191.238 101.371C191.405 101.371 191.572 101.308 191.699 101.181C191.954 100.926 191.954 100.513 191.699 100.258L189.648 98.2073V96.9611L190.661 96.3763L191.729 96.9926L192.48 99.7947C192.558 100.086 192.822 100.279 193.109 100.279C193.165 100.279 193.222 100.271 193.278 100.256C193.627 100.162 193.833 99.8058 193.74 99.4574L193.326 97.9147L194.746 98.7339C194.849 98.7939 194.961 98.8215 195.071 98.8215C195.296 98.8215 195.516 98.7053 195.636 98.4955C195.817 98.1837 195.71 97.7853 195.398 97.605L193.986 96.7899L195.517 96.3792C195.865 96.2866 196.071 95.9288 195.978 95.581C195.885 95.2334 195.527 95.0287 195.179 95.1198ZM190.009 95.2466L189 95.8295L187.992 95.2466L187.99 94.0802L189 93.4977L190.009 94.081V95.2466Z" fill="#D1D1D1"/>
<circle cx="179.5" cy="82.5" r="3.5" stroke="#2F80ED" stroke-opacity="0.5" stroke-width="2"/>
<circle cx="91.5" cy="33.5" r="3.5" stroke="#D1D1D1" stroke-width="2"/>
</svg>
