<svg width="36" height="36" viewBox="0 0 36 36" fill="none" xmlns="http://www.w3.org/2000/svg">
<g opacity="0.5">
<path d="M29.2806 4.5H19.7604C18.0217 4.5 16.625 5.89667 16.625 7.63539V13.0511H32.3875V7.63539C32.416 5.89667 30.9908 4.5 29.2806 4.5ZM21.2996 10.7138C21.2996 11.1983 20.929 11.5689 20.4445 11.5689C19.9599 11.5689 19.5894 11.1983 19.5894 10.7138V8.37648C19.5894 7.89192 19.9599 7.52138 20.4445 7.52138C20.929 7.52138 21.2996 7.89192 21.2996 8.37648V10.7138Z" fill="#2F80ED"/>
<path d="M16.625 14.4478V25.3646C16.625 27.1033 18.0217 28.5 19.7604 28.5H29.2521C30.9908 28.5 32.3875 27.1033 32.3875 25.3646V14.4478H16.625ZM21.2996 19.1223C21.2996 19.6069 20.929 19.9774 20.4445 19.9774C19.9599 19.9774 19.5894 19.6069 19.5894 19.1223V16.785C19.5894 16.3005 19.9599 15.9299 20.4445 15.9299C20.929 15.9299 21.2996 16.3005 21.2996 16.785V19.1223Z" fill="#2F80ED"/>
<circle cx="9.14656" cy="23.1466" r="5.83406" fill="#2F80ED"/>
<path d="M9.14583 20.8125V25.4792M6.8125 23.1458H11.4792" stroke="white" stroke-width="0.65625" stroke-linecap="round" stroke-linejoin="round"/>
</g>
</svg>
